<?xml version="1.0" encoding="UTF-8"?>
<svg xmlns="http://www.w3.org/2000/svg" width="160" height="160" viewBox="0 0 160 160" id="svg2" version="1.1">
    <style>
      .blue1 { fill:#4c96d1; stroke:none; }
      .blue2 { fill:#1d74ba; stroke:none; }
      .blue3 { fill:#205da4; stroke:none; }
      .blue4 { fill:#0271bc; stroke:none; }
      .blue5 { fill:#2d3976; stroke:none; }
      .red1 { fill:#9c1020; stroke:none; }
      .white { fill:white; stroke:none; }
    </style>
    <g id="layer1" transform="translate(0,-892.36216)">
        <path class="blue1" d="m 72.324723,948.74592 c -1.740612,21.36322 -0.458021,43.73418 0,65.83028 -14.95567,-1.6129 -25.384617,-0.057 -32.472324,3.8376 z" id="sail1"></path>
        <path class="blue2" d="m 73.800738,926.9009 -48.708487,83.8376 c 12.201398,-4.4501 24.403706,-7.7563 36.605166,-4.428 -0.301434,-32.25103 5.407068,-56.48882 12.103321,-79.4096 z" id="sail2" />
        <path class="blue3" d="m 68.782288,915.38799 -52.250923,76.75277 c 11.946783,-7.59023 24.27459,-12.5133 37.785978,-9.15129 -0.794027,-26.4216 5.046672,-48.24993 14.464945,-67.60148 z" id="sail3" />
        <path class="blue5" d="m 0.25900793,1014.029 2.07206347,3.8851 c 35.2472966,0.1227 59.0587236,12.1191 156.9588086,7.5112 l -0.51802,-2.8491 c -35.87263,3.5498 -93.07827,-1.0972 -158.51285207,-8.5472 z" id="hull1" />
        <path class="red1" d="m 18.130555,1020.2452 c 45.993287,4.1302 90.756955,10.5146 140.641305,7.5112 l -2.07206,2.8491 c -49.48013,6.6168 -72.666208,0.5152 -128.208927,-3.3671 z" id="hull2" />
        <path class="blue5" d="m 31.857976,1029.3105 64.233967,5.6981 c -17.625553,1.2489 -42.788762,-4.099 -51.801587,5.1802 z" id="hull3" />
        <path class="white" d="m 78.369307,955.40895 8.787735,-4.60995 18.727958,14.8383 29.82067,-30.10879 20.02452,8.21149 0,61.3701 -20.31264,8.0674 -29.67661,-29.82067 -18.583898,14.83831 -8.787735,-4.89808 z" id="vscode-border" />
        <path class="blue4" d="M 135.84961 44.751953 L 105.59766 74.859375 L 87.300781 59.900391 L 79.699219 63.699219 L 79.699219 100.55859 L 87 104.19922 L 106.0293 89.121094 L 135.84961 119.375 L 154.14648 111.74023 L 154.43359 52.279297 L 135.84961 44.751953 z M 135.70508 66.503906 L 135.70508 97.476562 L 116.25781 82.0625 L 135.70508 66.503906 z M 86.869141 70.537109 L 98.25 81.917969 L 86.724609 94.019531 L 86.869141 70.537109 z " transform="translate(0,892.36216)" id="vscode-fill"/>
    </g>
</svg>