<?xml version="1.0" encoding="UTF-8" standalone="no"?>
<svg xmlns="http://www.w3.org/2000/svg" version="1.1" viewBox="0 0 128 128" height="128" width="128">
  <g id="layer1">
    <path id="sail1" style="fill:#4c96d1;stroke:none" d="m 58.03,40.76 c -1.39,17.08 -0.36,34.98 0,52.66 -11.96,-1.28 -20.30,-0.04 -25.97,3.06 z" />
    <path id="sail2" style="fill:#1d74ba;stroke:none" d="M 59.22,23.29 20.26,90.35 c 9.76,-3.56 19.52,-6.2 29.28,-3.53 -0.24,-25.8 4.32,-45.18 9.68,-63.52 z" />
    <path id="sail3" style="fill:#205da4;stroke:none" d="m 55.20,14.07 -41.8,61.4 C 22.95,69.40 32.82,65.46 43.62,68.15 42.99,47.01 47.66,29.56 55.19,14.07 Z" />
    <path id="hull1" style="fill:#2d3976;stroke:none" d="m 0.38,92.98 1.65,3.10 c 28.19,0.09 47.24,9.68 125.56,6.00 l -0.40,-2.27 C 98.49,102.65 52.73,98.95 0.38,92.99 Z" />
    <path id="hull2" style="fill:#9c1020;stroke:none" d="m 14.68,97.96 c 36.79,3.30 72.6,8.40 112.51,6.00 l -1.65,2.27 C 85.95,111.53 67.41,106.65 22.98,103.55 Z" />
    <path id="hull3" style="fill:#2d3976;stroke:none" d="m 25.66,105.21 51.38,4.55 c -14.09,0.99 -34.22,-3.27 -41.44,4.14 z" />
    <path id="vscode-border" style="fill:white;stroke:none" d="m 62.86,46.09 7.02,-3.68 14.97,11.86 23.85,-24.08 16.01,6.56 0,49.09 -16.24,6.44 L 84.75,68.45 69.89,80.31 62.86,76.40 Z" />
    <path id="vscode-fill" style="fill:#0271bc;stroke:none" d="m 108.85,31.45 -24.2,24.08 -14.63,-11.96 -6.08,3.03 0,29.48 5.84,2.92 15.21,-12.05 23.85,24.2 14.63,-6.10 0.22,-47.56 -14.86,-6.01 z m -0.11,17.4 0,24.77 -15.56,-12.32 15.56,-12.44 z m -39.07,3.22 9.11,9.10 -9.22,9.68 0.11,-18.78 z" />
  </g>
</svg>
