<?xml version="1.0" encoding="UTF-8" standalone="no"?>
<!-- Created with Inkscape (http://www.inkscape.org/) -->

<svg
   xmlns:dc="http://purl.org/dc/elements/1.1/"
   xmlns:cc="http://creativecommons.org/ns#"
   xmlns:rdf="http://www.w3.org/1999/02/22-rdf-syntax-ns#"
   xmlns:svg="http://www.w3.org/2000/svg"
   xmlns="http://www.w3.org/2000/svg"
   xmlns:sodipodi="http://sodipodi.sourceforge.net/DTD/sodipodi-0.dtd"
   xmlns:inkscape="http://www.inkscape.org/namespaces/inkscape"
   width="160"
   height="160"
   viewBox="0 0 160 160"
   id="svg2"
   version="1.1"
   inkscape:version="0.91 r13725"
   sodipodi:docname="harbourIcon.svg">
  <defs
     id="defs4" />
  <sodipodi:namedview
     id="base"
     pagecolor="#85807e"
     bordercolor="#666666"
     borderopacity="1.0"
     inkscape:pageopacity="0"
     inkscape:pageshadow="2"
     inkscape:zoom="3.3875"
     inkscape:cx="80"
     inkscape:cy="80"
     inkscape:document-units="px"
     inkscape:current-layer="layer1"
     showgrid="false"
     units="px"
     inkscape:window-width="1366"
     inkscape:window-height="707"
     inkscape:window-x="0"
     inkscape:window-y="32"
     inkscape:window-maximized="1" />
  <metadata
     id="metadata7">
    <rdf:RDF>
      <cc:Work
         rdf:about="">
        <dc:format>image/svg+xml</dc:format>
        <dc:type
           rdf:resource="http://purl.org/dc/dcmitype/StillImage" />
        <dc:title></dc:title>
      </cc:Work>
    </rdf:RDF>
  </metadata>
  <g
     inkscape:label="Livello 1"
     inkscape:groupmode="layer"
     id="layer1"
     transform="translate(0,-892.36216)">
    <path
       style="fill:#991424;fill-rule:evenodd;stroke:none;stroke-width:1px;stroke-linecap:butt;stroke-linejoin:miter;stroke-opacity:1;fill-opacity:0.98039216"
       d="m 0,1013.3954 c 52.123098,4.4656 102.08359,12.896 158.52399,9.4465 l -0.88561,6.1992 c -47.23392,12.0658 -107.324136,-0.1385 -114.243546,10.9225 -6.97431,-3.4854 -19.052595,-24.2789 -42.0623342,-22.3141 z"
       id="path4230"
       inkscape:connector-curvature="0"
       sodipodi:nodetypes="cccccc" />
    <path
       style="fill:#4c96d1;fill-rule:evenodd;stroke:none;stroke-width:1px;stroke-linecap:round;stroke-linejoin:round;stroke-opacity:1;fill-opacity:0.99607843"
       d="m 72.324723,948.74592 c -1.740612,21.36322 -0.458021,43.73418 0,65.83028 -14.95567,-1.6129 -25.384617,-0.057 -32.472324,3.8376 z"
       id="path4226"
       inkscape:connector-curvature="0"
       sodipodi:nodetypes="cccc" />
    <path
       style="fill:#1d74ba;fill-rule:evenodd;stroke:none;stroke-width:1px;stroke-linecap:round;stroke-linejoin:round;stroke-opacity:1;fill-opacity:1"
       d="m 73.800738,926.9009 -48.708487,83.8376 c 12.201398,-4.4501 24.403706,-7.7563 36.605166,-4.428 -0.301434,-32.25103 5.407068,-56.48882 12.103321,-79.4096 z"
       id="path4224"
       inkscape:connector-curvature="0"
       sodipodi:nodetypes="cccc" />
    <path
       style="fill:#205da4;fill-rule:evenodd;stroke:none;stroke-width:1px;stroke-linecap:round;stroke-linejoin:round;stroke-opacity:1;fill-opacity:1"
       d="m 68.782288,915.38799 -52.250923,76.75277 c 11.946783,-7.59023 24.27459,-12.5133 37.785978,-9.15129 -0.794027,-26.4216 5.046672,-48.24993 14.464945,-67.60148 z"
       id="path4220"
       inkscape:connector-curvature="0"
       sodipodi:nodetypes="cccc" />
    <path
       style="fill:#ffffff;fill-rule:evenodd;stroke:none;stroke-width:1px;stroke-linecap:butt;stroke-linejoin:miter;stroke-opacity:1;fill-opacity:1"
       d="m 78.369307,955.40895 8.787735,-4.60995 18.727958,14.8383 29.82067,-30.10879 20.02452,8.21149 0,61.3701 -20.31264,8.0674 -29.67661,-29.82067 -18.583898,14.83831 -8.787735,-4.89808 z"
       id="path4293"
       inkscape:connector-curvature="0" />
    <path
       style="fill:#0271bc;fill-rule:evenodd;stroke:none;stroke-width:0.1;stroke-linecap:round;stroke-linejoin:round;stroke-miterlimit:4;stroke-dasharray:none;stroke-opacity:1;fill-opacity:1"
       d="M 135.84961 44.751953 L 105.59766 74.859375 L 87.300781 59.900391 L 79.699219 63.699219 L 79.699219 100.55859 L 87 104.19922 L 106.0293 89.121094 L 135.84961 119.375 L 154.14648 111.74023 L 154.43359 52.279297 L 135.84961 44.751953 z M 135.70508 66.503906 L 135.70508 97.476562 L 116.25781 82.0625 L 135.70508 66.503906 z M 86.869141 70.537109 L 98.25 81.917969 L 86.724609 94.019531 L 86.869141 70.537109 z "
       transform="translate(0,892.36216)"
       id="path4295" />
  </g>
</svg>
